<svg xmlns="http://www.w3.org/2000/svg" width="29.004" height="34.792" viewBox="0 0 29.004 34.792"><defs><style>.a{fill:#940000;}</style></defs><g transform="translate(0)"><path class="a" d="M114.276,93.2a8.961,8.961,0,0,0-5.922,15.674c1.416,1.416,1.287,4.441,1.255,4.474a.533.533,0,0,0,.161.418.594.594,0,0,0,.386.161h8.207a.533.533,0,0,0,.386-.161.612.612,0,0,0,.161-.418c0-.032-.161-3.058,1.255-4.474l.1-.1A8.934,8.934,0,0,0,114.276,93.2Zm5.15,14.837c-.032.032-.1.1-.1.129a7.515,7.515,0,0,0-1.513,4.635H110.7c-.032-1.062-.257-3.379-1.609-4.763a7.837,7.837,0,1,1,10.331,0Z" transform="translate(-99.748 -85.701)"/><path class="a" d="M209.876,121.6a.547.547,0,1,0,0,1.094,5.858,5.858,0,0,1,5.858,5.858.547.547,0,1,0,1.094,0A6.923,6.923,0,0,0,209.876,121.6Z" transform="translate(-195.38 -111.816)"/><path class="a" d="M163.426,358.4h-7.145a1.352,1.352,0,1,0,0,2.7h7.113a1.388,1.388,0,0,0,1.384-1.352A1.36,1.36,0,0,0,163.426,358.4Zm0,1.577h-7.145a.254.254,0,0,1-.258-.257.237.237,0,0,1,.258-.258h7.113a.254.254,0,0,1,.257.258A.23.23,0,0,1,163.426,359.977Z" transform="translate(-145.357 -329.562)"/><path class="a" d="M174.5,398.8h-5.021a1.352,1.352,0,0,0,0,2.7H174.5a1.36,1.36,0,0,0,1.352-1.352A1.339,1.339,0,0,0,174.5,398.8Zm0,1.577h-5.021a.254.254,0,0,1-.257-.257.237.237,0,0,1,.257-.258H174.5a.257.257,0,1,1,0,.515Z" transform="translate(-157.495 -366.712)"/><path class="a" d="M209.876,4.828a.542.542,0,0,0,.547-.547V.547a.547.547,0,0,0-1.094,0V4.281A.564.564,0,0,0,209.876,4.828Z" transform="translate(-195.38)"/><path class="a" d="M296.046,33.217a.519.519,0,0,0-.74.129l-2.06,3.09a.53.53,0,0,0,.129.772.519.519,0,0,0,.29.1.514.514,0,0,0,.451-.257l2.06-3.09A.5.5,0,0,0,296.046,33.217Z" transform="translate(-272.441 -30.449)"/><path class="a" d="M105.6,35.149a.519.519,0,0,0,.29-.1.564.564,0,0,0,.161-.772l-2-3.122a.558.558,0,0,0-.933.612l2,3.122A.534.534,0,0,0,105.6,35.149Z" transform="translate(-97.642 -28.423)"/><path class="a" d="M40.034,105.121l-3.251-1.77a.567.567,0,0,0-.74.225.514.514,0,0,0,.225.74l3.251,1.77a.757.757,0,0,0,.257.064.531.531,0,0,0,.483-.29A.567.567,0,0,0,40.034,105.121Z" transform="translate(-35.966 -94.983)"/><path class="a" d="M346.529,103.576a.567.567,0,0,0-.74-.225l-3.283,1.77a.567.567,0,0,0-.225.74.531.531,0,0,0,.483.29.607.607,0,0,0,.258-.064l3.283-1.77A.567.567,0,0,0,346.529,103.576Z" transform="translate(-317.581 -94.983)"/></g></svg>