<svg xmlns="http://www.w3.org/2000/svg" width="16" height="16" viewBox="0 0 16 16"><defs><style>.a{fill:#fff;}.b{fill:#efecec;}.c{fill:#f3f2f2;}.d{fill:#ec1c24;}</style></defs><g transform="translate(0)"><g transform="translate(0.001 0.001)"><circle class="a" cx="8" cy="8" r="8" transform="translate(-0.001 -0.001)"/><circle class="a" cx="8" cy="8" r="8" transform="translate(-0.001 -0.001)"/></g><path class="b" d="M264.933,6.272l0-.007A8,8,0,0,0,258.109.972c1.224.671,1.582,2.8,1.9,5.3a22.121,22.121,0,0,1,0,5.3c-.311,2.515-.67,4.657-1.9,5.331a8.005,8.005,0,0,0,6.827-5.308l.008-.023a8.006,8.006,0,0,0-.011-5.3Z" transform="translate(-249.391 -0.939)"/><path class="c" d="M11.026,5.333C10.712,2.831,9.943.7,8.718.033,8.482.012,8.242,0,8,0A8,8,0,0,0,.46,5.326l0,.007a8.006,8.006,0,0,0-.011,5.3l.008.023A8,8,0,0,0,8,16c.242,0,.482-.012.719-.033,1.23-.674,2-2.816,2.311-5.331A22.118,22.118,0,0,0,11.026,5.333Z"/><circle class="d" cx="2.947" cy="2.947" r="2.947" transform="translate(5.053 5.053)"/></g></svg>