<svg xmlns="http://www.w3.org/2000/svg" width="27.207" height="36.999" viewBox="0 0 27.207 36.999"><defs><style>.a{fill:#940000;}</style></defs><g transform="translate(0 0)"><g transform="translate(0 0)"><path class="a" d="M93.015,10.12a3.723,3.723,0,0,1-1.1-2.65,4.937,4.937,0,0,0-4.929-4.929,3.735,3.735,0,0,1-2.65-1.1,4.93,4.93,0,0,0-6.967,0,3.723,3.723,0,0,1-2.65,1.1A4.937,4.937,0,0,0,69.791,7.47a3.705,3.705,0,0,1-1.1,2.65,4.939,4.939,0,0,0,0,6.975,3.723,3.723,0,0,1,1.1,2.65,4.934,4.934,0,0,0,3.531,4.725L70.461,35.157l4.317-2.4L77.311,37l2.643-9.865a5.047,5.047,0,0,0,1.791,0l2.65,9.858,2.534-4.244,4.317,2.4L88.385,24.462a4.934,4.934,0,0,0,3.531-4.725,3.735,3.735,0,0,1,1.1-2.65A4.93,4.93,0,0,0,93.015,10.12ZM76.9,33.985,75.215,31.16l-2.876,1.6,2.17-8.1c.08.007.153.007.226.007a3.735,3.735,0,0,1,2.65,1.1c.116.116.233.218.357.32l.109.087c.087.066.175.131.269.2.051.036.109.066.16.1.08.044.153.095.233.138s.138.073.2.1a.918.918,0,0,0,.116.051Zm12.486-1.223-2.876-1.6-1.689,2.825L82.9,26.77a.949.949,0,0,1,.124-.058c.073-.036.138-.066.211-.109s.153-.087.226-.131l.167-.1c.087-.058.167-.124.255-.189A.794.794,0,0,0,84,26.085c.124-.1.24-.2.357-.32a3.723,3.723,0,0,1,2.65-1.1,2.031,2.031,0,0,0,.211,0Zm2.788-16.5a4.895,4.895,0,0,0-1.441,3.487,3.755,3.755,0,0,1-2.985,3.669l-.189.029c-.1.015-.189.029-.284.036s-.2.015-.291.015a4.955,4.955,0,0,0-1.434.211,4.859,4.859,0,0,0-2.046,1.23,3.7,3.7,0,0,1-.313.277c-.036.029-.073.051-.109.08a2.632,2.632,0,0,1-.233.16c-.036.022-.08.051-.124.073-.087.051-.175.095-.262.138a.666.666,0,0,0-.1.051,3.18,3.18,0,0,1-.335.131c-.022.007-.051.022-.073.029l-.044.015a3.827,3.827,0,0,1-2.1,0l-.058-.015-.058-.022c-.116-.036-.233-.087-.349-.131-.029-.015-.066-.029-.095-.044-.095-.044-.182-.095-.269-.146l-.109-.066a2.948,2.948,0,0,1-.248-.167.824.824,0,0,1-.095-.073c-.109-.087-.211-.182-.313-.277a4.9,4.9,0,0,0-2.046-1.23,4.954,4.954,0,0,0-1.434-.211c-.1,0-.2-.007-.291-.015s-.182-.022-.284-.036l-.189-.029a3.755,3.755,0,0,1-2.985-3.669,4.895,4.895,0,0,0-1.441-3.487,3.744,3.744,0,0,1,0-5.3,4.895,4.895,0,0,0,1.441-3.487,3.746,3.746,0,0,1,3.742-3.742A4.895,4.895,0,0,0,78.214,2.3a3.761,3.761,0,0,1,5.3,0A4.895,4.895,0,0,0,87,3.742a3.746,3.746,0,0,1,3.742,3.742,4.895,4.895,0,0,0,1.442,3.487A3.737,3.737,0,0,1,92.178,16.257Z" transform="translate(-67.25 0)"/><path class="a" d="M141.125,65.1A8.871,8.871,0,1,0,150,73.967,8.886,8.886,0,0,0,141.125,65.1Zm0,16.555a7.688,7.688,0,1,1,7.688-7.688A7.7,7.7,0,0,1,141.125,81.655Z" transform="translate(-127.518 -60.361)"/></g></g></svg>