<svg xmlns="http://www.w3.org/2000/svg" width="16" height="16" viewBox="0 0 16 16"><defs><style>.a{fill:#c42e2d;}.b{fill:#2576a8;}.c{fill:#d34544;}.d{fill:#2a7cbb;}</style></defs><path class="a" d="M289.094,13.537l-.934,2.588a19.315,19.315,0,0,1,0,9.909l.934,2.588a8,8,0,0,0,0-15.086Z" transform="translate(-278.427 -13.08)"/><g transform="translate(7.978 0)"><path class="b" d="M239.506,3.048V.46A7.983,7.983,0,0,0,236.839,0C238.073,0,236.362,4.184,239.506,3.048Z" transform="translate(-236.817 -0.003)"/><path class="b" d="M236.209,385.988a7.983,7.983,0,0,0,2.667-.457v-2.588C235.763,382.632,236.209,385.988,236.209,385.988Z" transform="translate(-236.187 -369.988)"/></g><g transform="translate(0 0.447)"><path class="c" d="M0,20.776A8,8,0,0,0,5.365,28.33V13.223A8,8,0,0,0,0,20.776Z" transform="translate(-0.001 -13.223)"/><path class="c" d="M315.8,90.161v9.909A19.311,19.311,0,0,0,315.8,90.161Z" transform="translate(-305.133 -87.562)"/></g><path class="d" d="M164.108,12.955V3.045C163.563,1.248,162.674,0,161.441,0a7.983,7.983,0,0,0-2.636.447V15.553a7.989,7.989,0,0,0,2.636.447C162.674,16,163.563,14.752,164.108,12.955Z" transform="translate(-153.441)"/></svg>