<svg xmlns="http://www.w3.org/2000/svg" width="34.5" height="34.5" viewBox="0 0 34.5 34.5"><defs><style>.a{fill:#f88383;}.b{fill:#940000;}</style></defs><path class="a" d="M16,434.457A2.3,2.3,0,0,0,18.3,436.6c.054,0,.108,0,.163-.006A2.3,2.3,0,1,0,16,434.457Zm1.427-.914a1.143,1.143,0,0,1,.788-.392l.081,0a1.15,1.15,0,1,1-.869.4Z" transform="translate(-15.999 -402.098)"/><circle class="a" cx="0.575" cy="0.575" r="0.575" transform="translate(4.598 28.752)"/><circle class="a" cx="0.575" cy="0.575" r="0.575" transform="translate(6.225 27.125)"/><path class="a" d="M125.4,370.938a.575.575,0,1,0,.813,0A.575.575,0,0,0,125.4,370.938Z" transform="translate(-117.381 -345.27)"/><path class="a" d="M148.025,348.309a.575.575,0,1,0,.813,0A.575.575,0,0,0,148.025,348.309Z" transform="translate(-138.38 -324.268)"/><path class="b" d="M109.767,16.207a.575.575,0,0,0-.627-.177L80.39,25.805a.575.575,0,0,0-.22.953l4.324,4.282L87.5,40.893a.574.574,0,0,0,1.01.176l.008-.01,2.524-3.533,4.079,4.04a.575.575,0,0,0,.4.166.562.562,0,0,0,.08-.006.575.575,0,0,0,.422-.288l13.8-24.583a.575.575,0,0,0-.059-.649Zm-5.7,2.762L85.093,30.015l-3.453-3.42Zm.151,1.243L88.291,33.928a.575.575,0,0,0-.2.38l-.338,3.484L85.684,31ZM88.829,38.645l.293-3.02,1.092,1.082Zm6.564,1.573-5.88-5.824,17.711-15.251Z" transform="translate(-75.4 -16)"/></svg>